HIERARCHY
ROOT Hips
{
	OFFSET -0.001795 -0.223333 0.028219
	CHANNELS 6 Xposition Yposition Zposition Zrotation Yrotation Xrotation 
	JOINT LeftUpLeg
	{
		OFFSET 0.069520 -0.091406 -0.006815
		CHANNELS 3 Zrotation Yrotation Xrotation
		JOINT LeftLeg
		{
			OFFSET 0.034277 -0.375199 -0.004496
			CHANNELS 3 Zrotation Yrotation Xrotation
			JOINT LeftFoot
			{
				OFFSET -0.013596 -0.397961 -0.043693
				CHANNELS 3 Zrotation Yrotation Xrotation
				JOINT LeftToe
				{
					OFFSET 0.026358 -0.055791 0.119288
					CHANNELS 3 Zrotation Yrotation Xrotation
					End Site
					{
						OFFSET 0.000000 0.000000 0.000000
					}
				}
			}
		}
	}
	JOINT RightUpLeg
	{
		OFFSET -0.067670 -0.090522 -0.004320
		CHANNELS 3 Zrotation Yrotation Xrotation
		JOINT RightLeg
		{
			OFFSET -0.038290 -0.382569 -0.008850
			CHANNELS 3 Zrotation Yrotation Xrotation
			JOINT RightFoot
			{
				OFFSET 0.015774 -0.398415 -0.042312
				CHANNELS 3 Zrotation Yrotation Xrotation
				JOINT RightToe
				{
					OFFSET -0.025372 -0.048144 0.123348
					CHANNELS 3 Zrotation Yrotation Xrotation
					End Site
					{
						OFFSET 0.000000 0.000000 0.000000
					}
				}
			}
		}
	}
	JOINT Spine
	{
		OFFSET -0.002533 0.108963 -0.026696
		CHANNELS 3 Zrotation Yrotation Xrotation
		JOINT Spine1
		{
			OFFSET 0.005487 0.135180 0.001092
			CHANNELS 3 Zrotation Yrotation Xrotation
			JOINT Spine2
			{
				OFFSET 0.001457 0.052922 0.025425
				CHANNELS 3 Zrotation Yrotation Xrotation
				JOINT Neck
				{
					OFFSET -0.002778 0.213870 -0.042857
					CHANNELS 3 Zrotation Yrotation Xrotation
					JOINT Head
					{
						OFFSET 0.005152 0.064970 0.051349
						CHANNELS 3 Zrotation Yrotation Xrotation
						End Site
						{
							OFFSET 0.000000 0.000000 0.000000
						}
					}
				}
				JOINT LeftShoulder
				{
					OFFSET 0.078845 0.121749 -0.034090
					CHANNELS 3 Zrotation Yrotation Xrotation
					JOINT LeftArm
					{
						OFFSET 0.090977 0.030469 -0.008868
						CHANNELS 3 Zrotation Yrotation Xrotation
						JOINT LeftForeArm
						{
							OFFSET 0.259612 -0.012772 -0.027456
							CHANNELS 3 Zrotation Yrotation Xrotation
							JOINT LeftHand
							{
								OFFSET 0.249234 0.008986 -0.001171
								CHANNELS 3 Zrotation Yrotation Xrotation
								End Site
								{
									OFFSET 0.000000 0.000000 0.000000
								}
							}
						}
					}
				}
				JOINT RightShoulder
				{
					OFFSET -0.081759 0.118833 -0.038615
					CHANNELS 3 Zrotation Yrotation Xrotation
					JOINT RightArm
					{
						OFFSET -0.096012 0.032551 -0.009143
						CHANNELS 3 Zrotation Yrotation Xrotation
						JOINT RightForeArm
						{
							OFFSET -0.253742 -0.013329 -0.021401
							CHANNELS 3 Zrotation Yrotation Xrotation
							JOINT RightHand
							{
								OFFSET -0.255298 0.007772 -0.005559
								CHANNELS 3 Zrotation Yrotation Xrotation
								End Site
								{
									OFFSET 0.000000 0.000000 0.000000
								}
							}
						}
					}
				}
			}
		}
	}
}
MOTION
Frames: 10
Frame Time: 0.050000
-1.393703 0.938806 0.531094 -6.101222 51.726546 -2.539432 -6.599088 0.364892 1.700851 1.831184 -2.003605 14.742847 -4.163005 -4.843602 3.142284 0.000000 0.000000 0.000000 -3.148386 -2.240302 -25.475897 -4.580041 -9.418106 48.006800 -5.904337 -11.958267 9.143746 0.000000 0.000000 0.000000 -0.142708 -2.155538 17.776530 0.267898 0.248599 -3.342431 2.658788 -2.371477 4.701356 -12.249935 10.015232 -17.584061 0.000000 0.000000 0.000000 -14.091074 4.971880 -7.867878 -48.189221 2.756248 -6.536933 -135.660531 -54.695000 95.600371 0.000000 0.000000 0.000000 5.228431 -6.442823 -1.884247 54.895978 -9.445467 -7.622525 96.786160 59.834697 82.244255 0.000000 0.000000 0.000000 
-1.360014 0.945781 0.560455 -8.178442 56.638594 -4.101867 -4.449638 0.252037 5.866011 3.881228 -1.704507 11.580629 -9.893074 -10.195400 7.090491 0.000000 0.000000 0.000000 0.163107 -2.451355 -29.043622 -4.352255 -6.426408 37.847702 -2.084427 -3.808784 6.956610 0.000000 0.000000 0.000000 0.400337 -2.442161 18.048082 0.577472 0.312026 -4.442049 2.888763 -4.663923 5.445425 -11.463735 9.837298 -18.819383 0.000000 0.000000 0.000000 -12.569150 4.402583 -7.148209 -49.968669 0.265606 -6.179794 -140.801767 -52.345899 99.253175 0.000000 0.000000 0.000000 4.874000 -7.554131 -2.402308 54.745477 -11.904692 -8.459219 95.274511 60.488443 81.683903 0.000000 0.000000 0.000000 
-1.321616 0.957655 0.593623 -9.620569 59.182836 -3.569123 -2.572601 -0.057585 7.121393 4.198837 -1.520976 10.358530 -14.297716 -9.649992 13.687131 0.000000 0.000000 0.000000 4.065242 -1.985249 -31.241330 -3.606519 -3.097659 26.089906 1.089011 2.866486 11.425730 0.000000 0.000000 0.000000 1.083055 -2.171582 16.254960 0.944722 0.362954 -5.672322 2.510294 -6.681867 6.581356 -11.521412 10.008239 -20.072086 0.000000 0.000000 0.000000 -11.993679 4.883124 -7.223259 -51.588055 -0.249120 -6.558449 -142.232617 -50.669580 99.208356 0.000000 0.000000 0.000000 5.558373 -7.871323 -2.413434 54.251429 -12.203039 -8.617898 94.222531 61.229207 81.738331 0.000000 0.000000 0.000000 
-1.276920 0.969256 0.629612 -9.593514 61.745091 -2.832435 -1.921566 -0.340828 8.638130 4.796435 -1.677497 10.656134 -17.522026 -6.654192 20.953735 0.000000 0.000000 0.000000 6.475683 -1.258848 -30.095649 -4.244612 -1.328717 18.937295 1.571649 4.105070 21.648998 0.000000 0.000000 0.000000 1.113440 -1.737862 14.184315 1.308184 -0.467671 -2.762811 2.694136 -7.325545 4.267380 -11.481972 9.841032 -20.595294 0.000000 0.000000 0.000000 -12.123853 5.547425 -7.565209 -50.417858 0.283559 -6.392964 -141.235981 -47.485909 93.226785 0.000000 0.000000 0.000000 5.510107 -7.328822 -2.177116 53.527830 -12.788086 -8.574313 93.026420 62.295803 81.230575 0.000000 0.000000 0.000000 
-1.223902 0.973714 0.667260 -10.037972 64.292948 -2.820835 -1.091446 -0.450832 7.524801 4.776844 -3.147412 16.496218 -18.697969 -3.152609 26.800766 0.000000 0.000000 0.000000 7.625562 -0.698971 -27.918474 -4.771756 -1.831281 20.534050 -0.635917 1.609102 22.380549 0.000000 0.000000 0.000000 1.706352 -1.281285 11.473736 2.510763 -1.487303 -1.170380 1.269885 -5.730550 2.859122 -9.836455 9.026472 -17.957381 0.000000 0.000000 0.000000 -11.425963 4.793030 -7.388689 -49.279932 1.944561 -6.700568 -137.827992 -46.107630 83.922347 0.000000 0.000000 0.000000 3.253949 -7.454350 -2.525076 55.133133 -14.680174 -8.491059 92.585381 62.132184 81.664501 0.000000 0.000000 0.000000 
-1.167418 0.968463 0.702786 -12.454846 65.386263 -6.680698 1.247042 -0.588082 4.125513 -0.517158 -6.664206 30.003379 -15.274791 2.700996 31.483196 0.000000 0.000000 0.000000 8.798903 0.384977 -23.278741 -3.842509 -3.215569 22.841636 -3.756605 -2.904711 19.255933 0.000000 0.000000 0.000000 2.929023 -1.370706 11.049187 1.225672 -0.948077 -1.167229 2.345230 -2.464021 2.776258 -9.935757 9.163674 -16.047871 0.000000 0.000000 0.000000 -11.371372 3.856016 -7.634233 -48.371357 5.635701 -7.915987 -132.339676 -44.421067 71.476480 0.000000 0.000000 0.000000 3.092419 -6.213657 -1.907933 54.232108 -15.639922 -8.384162 91.720282 62.125509 82.313803 0.000000 0.000000 0.000000 
-1.113501 0.953480 0.733631 -14.432851 67.266924 -10.906424 2.083097 -0.504042 -2.831118 -9.714819 -11.761536 48.023815 -8.407011 8.742098 33.695423 0.000000 0.000000 0.000000 9.215392 0.931788 -18.934794 -3.877916 -5.023602 26.284188 -5.548648 -6.642659 15.738829 0.000000 0.000000 0.000000 3.329447 -1.798955 12.781281 0.705285 -0.808574 -0.939086 2.542139 1.314929 3.262689 -8.478446 8.670732 -15.869998 0.000000 0.000000 0.000000 -12.336017 4.783191 -9.354469 -45.443656 9.138679 -8.394460 -129.975948 -41.723946 63.099687 0.000000 0.000000 0.000000 4.456841 -4.603998 -0.568316 54.537217 -13.979410 -7.740915 92.746223 63.496803 86.680377 0.000000 0.000000 0.000000 
-1.062454 0.941888 0.759686 -15.360268 69.294532 -13.136920 2.157316 -1.280058 -11.958385 -21.359554 -11.972302 59.773402 2.517083 17.029784 31.265506 0.000000 0.000000 0.000000 8.291156 1.157560 -13.646834 -2.728227 -6.280244 26.502758 -5.032800 -7.398034 11.263988 0.000000 0.000000 0.000000 2.731873 -2.084559 14.307360 -0.309587 -0.309435 -1.412416 4.063166 4.851513 3.793266 -7.397871 8.336094 -15.443104 0.000000 0.000000 0.000000 -12.774525 4.108630 -10.274786 -45.657819 13.656462 -10.191857 -125.485112 -40.732959 55.380095 0.000000 0.000000 0.000000 6.925015 -4.596265 0.553951 52.911723 -9.704897 -6.485864 93.979472 66.767261 93.340665 0.000000 0.000000 0.000000 
-1.010291 0.943414 0.782794 -12.753521 68.750400 -10.968030 1.355664 -3.518133 -21.301865 -28.210145 -9.137369 61.690647 9.697057 23.444896 26.485626 0.000000 0.000000 0.000000 7.697362 1.140837 -8.070966 -1.943660 -5.693041 24.037660 -5.055104 -8.318439 10.038261 0.000000 0.000000 0.000000 1.112775 -2.024208 15.116139 -1.623283 0.828609 -4.040759 5.155915 8.614000 6.264722 -5.450546 7.877832 -15.950293 0.000000 0.000000 0.000000 -12.911948 6.343095 -12.262544 -43.680495 17.800330 -11.488192 -121.949154 -37.810094 47.268142 0.000000 0.000000 0.000000 6.968680 -3.873571 1.444525 53.632956 -5.003252 -4.668906 101.045450 69.513751 106.474865 0.000000 0.000000 0.000000 
-0.955131 0.952154 0.803938 -9.617114 69.330093 -7.293714 2.258458 -6.793560 -29.964121 -28.347314 -7.082655 54.755393 10.922277 25.975113 28.823889 0.000000 0.000000 0.000000 5.991502 0.605775 -2.708416 -0.622206 -4.446306 19.255696 -5.421972 -7.449380 13.758171 0.000000 0.000000 0.000000 -0.787345 -1.589179 14.337655 -3.051612 1.190477 -3.979608 6.037414 12.042036 5.582274 -5.307829 7.638267 -15.468359 0.000000 0.000000 0.000000 -10.758492 7.668205 -11.862139 -43.631398 21.542263 -13.665221 -121.989744 -35.468403 43.336722 0.000000 0.000000 0.000000 7.040514 -4.494047 1.507470 54.974524 -1.988994 -3.006700 117.676015 69.803792 128.853714 0.000000 0.000000 0.000000 
